PathFileType	4	(X/Y/Z)	C:\Users\Basilio\Documents\Thesis Gigler\squatting_fais\c3dfiles\075\SLS_front_pre4\markers_experimental.trc
DataRate	CameraRate	NumFrames	NumMarkers	Units	OrigDataRate	OrigDataStartFrame	OrigNumFrames
200.000000	200.000000	4	61	mm	200.000000	1167	1334
Frame#	Time	FHD			LBHD			RBHD			C7			T10			CLAV			LSHO			LUUPA			LMUPA			LDUPA			LLEP			LMEP			LRAD			LUL			LRFIN			RSHO			RUPA1			RMUPA			RDUPA			RLEP			RMEP			RRAD			RUL			RUFIN			USACR			LSACR			RSACR			LTHI1			LTHI2			LTHI3			LTHI4			LLFC			LMFC			LTIB1			LTIB2			LTIB3			LTIB4			LLMAL			LMMAL			LHEE			LMT1			LMT2			LMT5			RTHI			RTHI2			RTHI3			RTHI4			RLFC			RMFC			RTIB1			RTIB2			RTIB3			RTIB4			RLMAL			RMMAL			RHEE			RMT1			RMT2			RMT5			RASI			LASI			
		X1	Y1	Z1	X2	Y2	Z2	X3	Y3	Z3	X4	Y4	Z4	X5	Y5	Z5	X6	Y6	Z6	X7	Y7	Z7	X8	Y8	Z8	X9	Y9	Z9	X10	Y10	Z10	X11	Y11	Z11	X12	Y12	Z12	X13	Y13	Z13	X14	Y14	Z14	X15	Y15	Z15	X16	Y16	Z16	X17	Y17	Z17	X18	Y18	Z18	X19	Y19	Z19	X20	Y20	Z20	X21	Y21	Z21	X22	Y22	Z22	X23	Y23	Z23	X24	Y24	Z24	X25	Y25	Z25	X26	Y26	Z26	X27	Y27	Z27	X28	Y28	Z28	X29	Y29	Z29	X30	Y30	Z30	X31	Y31	Z31	X32	Y32	Z32	X33	Y33	Z33	X34	Y34	Z34	X35	Y35	Z35	X36	Y36	Z36	X37	Y37	Z37	X38	Y38	Z38	X39	Y39	Z39	X40	Y40	Z40	X41	Y41	Z41	X42	Y42	Z42	X43	Y43	Z43	X44	Y44	Z44	X45	Y45	Z45	X46	Y46	Z46	X47	Y47	Z47	X48	Y48	Z48	X49	Y49	Z49	X50	Y50	Z50	X51	Y51	Z51	X52	Y52	Z52	X53	Y53	Z53	X54	Y54	Z54	X55	Y55	Z55	X56	Y56	Z56	X57	Y57	Z57	X58	Y58	Z58	X59	Y59	Z59	X60	Y60	Z60	X61	Y61	Z61	

1168	5.835	-263.7576293945313	1727.482788085938	-926.9335937500002	-392.5608520507814	1597.708984375	-1005.394592285156	-363.0160827636719	1629.905029296875	-849.2947387695315	-418.4667053222657	1478.169799804688	-951.483093261719	-412.3273010253907	1153.161499023438	-946.5244750976565	-270.8415832519532	1425.754272460938	-945.7167968750002	-300.4502868652344	1458.740356445313	-1102.955932617188	-275.7091674804688	1257.673828125	-1215.175537109375	-232.7002716064454	1246.5517578125	-1192.879516601563	-244.3774871826172	1196.05712890625	-1225.830688476563	-202.1307067871094	1122.254516601563	-1220.976684570313	-269.8436279296876	1093.728149414063	-1163.95068359375	-77.81933593750001	1067.619140625	-1006.079833984375	-32.97836685180665	1033.314086914063	-1055.944091796875	-15.3757963180542	1065.13525390625	-952.4777832031252	-315.8683471679688	1443.631958007813	-787.8475341796877	-300.7826843261719	1243.48876953125	-676.8482055664064	-256.1948547363282	1228.793701171875	-692.2879028320314	-274.8761901855469	1179.176147460938	-661.9176635742189	-239.044906616211	1116.848876953125	-659.4489746093751	-286.1801147460938	1070.472290039063	-711.9441528320314	-64.80440521240236	1085.151489257813	-871.959411621094	-45.98596954345704	1042.200317382813	-810.8065185546877	11.96221446990967	1061.090087890625	-912.9793090820315	-401.5158081054689	1053.864013671875	-947.0966796875002	-406.619354248047	1021.832824707031	-972.8975830078127	-404.2266540527345	1023.740478515625	-916.1844482421877	-294.9118957519532	743.1718750000001	-1140.561767578125	-266.9862976074219	663.5720825195314	-1140.720092773438	-219.6010437011719	668.4832153320314	-1125.55322265625	-294.6506958007813	611.7091674804689	-1129.217895507813	-307.3059692382813	501.6734619140626	-1120.62939453125	-262.5935363769532	485.4163818359376	-998.1087036132815	-251.8311157226563	378.2785034179688	-1092.833251953125	-312.8242187500001	340.5215454101563	-1140.725341796875	-271.4981689453126	333.3496093750001	-1122.902221679688	-274.8158264160157	252.4178619384766	-1095.623413085938	-351.2965698242188	113.2423706054688	-1112.558227539063	-321.5803222656251	124.381332397461	-1032.930419921875	-406.9757080078126	81.00181579589845	-1072.252319335938	-200.1435546875001	52.23293685913087	-1041.494018554688	-195.6102447509766	53.62203216552736	-1089.841430664063	-233.7128448486329	39.28688430786134	-1143.36181640625	-305.5337524414063	798.6579589843752	-745.7468261718751	-268.7195739746094	744.7745971679689	-744.0865478515626	-237.4500427246094	749.5046997070314	-754.7461547851564	-298.4808959960938	663.9509277343751	-747.9295043945314	-318.9324951171876	509.9621887207032	-768.8719482421877	-272.9529724121094	492.0180664062501	-888.8763427734377	-278.4343566894532	354.6136779785157	-818.760192871094	-340.2739562988282	287.1780700683594	-759.1200561523439	-303.1274108886719	276.1864318847657	-787.9034423828127	-314.2203979492188	229.8928527832032	-821.3623657226565	-394.2630310058595	116.4656753540039	-780.1343383789065	-359.2042846679688	135.2918701171875	-860.6459960937502	-446.2946166992189	94.09912872314455	-837.9062500000002	-241.6653442382813	57.74856185913087	-825.4761352539065	-247.1371459960938	57.32210540771486	-783.482360839844	-289.2339172363282	37.06340026855469	-735.1205444335939	-237.0563049316407	999.7164306640627	-819.3931274414065	-246.8724975585938	988.3486328125002	-1073.727294921875	
1169	5.84	-262.5075683593751	1727.401123046875	-927.6492919921877	-391.6503295898439	1597.780029296875	-1006.050903320313	-362.1278076171876	1629.911376953125	-849.9853515625002	-417.6042480468751	1478.146850585938	-952.1923828125002	-411.8812561035157	1152.975463867188	-947.5422363281252	-270.2335815429688	1425.674194335938	-946.4433593750002	-299.5915222167969	1458.6962890625	-1103.807006835938	-275.8085327148438	1257.542114257813	-1216.364013671875	-233.0407409667969	1246.181762695313	-1194.096069335938	-245.3854980468751	1195.878051757813	-1227.34423828125	-203.0825653076172	1121.699462890625	-1222.232666015625	-271.1492614746094	1093.574340820313	-1165.198120117188	-79.55677795410158	1066.182739257813	-1006.982238769531	-34.96269989013673	1031.444702148438	-1056.996826171875	-17.27194976806641	1063.125122070313	-954.1235961914065	-315.4783020019532	1443.560791015625	-788.4788818359377	-300.9010009765626	1243.030151367188	-677.5380249023439	-256.5409851074219	1227.980712890625	-693.1232299804689	-275.3945007324219	1178.474243164063	-662.8099975585939	-240.0358428955079	1116.00537109375	-660.2839355468751	-287.2781982421876	1070.077026367188	-712.4498291015626	-66.12273406982423	1083.927368164063	-872.928894042969	-47.27692413330079	1040.888793945313	-811.7669677734377	10.38011360168457	1059.305419921875	-914.2689208984377	-400.9102172851564	1053.795043945313	-948.0794677734377	-405.9483337402345	1021.805725097656	-973.9328613281252	-403.6624450683595	1023.628723144531	-917.2489013671877	-293.8301391601563	743.0737915039064	-1141.203857421875	-265.8646850585938	663.5440063476564	-1141.271118164063	-218.4810180664063	668.4212036132814	-1126.183227539063	-293.6582641601563	611.6022338867189	-1129.667602539063	-306.0757141113282	501.4605407714845	-1121.085205078125	-262.0841979980469	485.3406066894532	-998.5066528320315	-251.0584259033204	378.1223754882813	-1093.032348632813	-312.1644592285157	340.5044860839844	-1141.069458007813	-271.0836181640626	333.2375183105469	-1123.137084960938	-274.3567504882813	252.2608947753907	-1095.76904296875	-351.0202941894532	113.1605834960938	-1112.609252929688	-321.5104980468751	124.4043579101563	-1033.001098632813	-406.9854736328126	81.02149963378908	-1072.318237304688	-200.1102447509766	52.22701644897462	-1041.433959960938	-195.6367797851563	53.55916595458986	-1089.800537109375	-233.7227630615235	39.31713485717774	-1143.358520507813	-305.4362487792969	798.7761840820315	-746.3338012695314	-268.6245422363282	744.8641357421876	-744.5086059570314	-237.3695526123047	749.5581054687501	-755.2449951171876	-298.4971313476563	663.9698486328126	-748.5216674804689	-318.8150939941407	510.130096435547	-769.3942871093752	-272.4858093261719	491.9641418457032	-889.2324829101565	-278.2962951660157	354.6261901855469	-818.937438964844	-340.1518554687501	287.4425964355469	-759.3443603515626	-302.0428466796876	276.0339355468751	-787.6048583984377	-313.9853820800782	229.9500274658204	-821.4395141601565	-394.1925659179689	116.5988540649414	-780.260681152344	-359.0616149902344	135.2859344482422	-860.7649536132815	-446.304901123047	94.14028167724611	-837.9944458007815	-241.6914672851563	57.7338104248047	-825.5013427734377	-247.1451721191407	57.33229827880861	-783.4704589843752	-289.1907653808594	37.0466537475586	-735.1464843750001	-236.5975494384766	999.5598144531252	-819.9426879882815	-246.7488708496094	988.8765869140627	-1075.019775390625	
1170	5.845	-261.5479431152344	1727.22509765625	-928.3691406250002	-390.8187866210939	1597.9267578125	-1006.714721679688	-361.1453857421876	1629.955200195313	-850.7239379882815	-416.9759521484376	1478.189208984375	-952.882507324219	-411.1758422851564	1153.027221679688	-948.5517578125002	-269.0787963867188	1425.334228515625	-946.906921386719	-298.8779296875001	1458.661376953125	-1104.557495117188	-276.0429992675782	1257.387451171875	-1217.294555664063	-233.770736694336	1245.880615234375	-1195.538818359375	-245.8330230712891	1195.468994140625	-1228.351928710938	-203.9182128906251	1121.134155273438	-1223.246459960938	-272.3488464355469	1093.446533203125	-1166.576293945313	-81.22876739501955	1064.78369140625	-1008.065490722656	-37.29158020019532	1029.536254882813	-1058.140258789063	-18.94227027893067	1061.3154296875	-955.2918701171877	-314.8769226074219	1443.317626953125	-789.246032714844	-300.9948730468751	1242.6513671875	-678.2212524414064	-256.7951660156251	1227.346801757813	-693.9878540039064	-275.9335327148438	1177.929077148438	-663.5119628906251	-240.9677886962891	1115.234985351563	-661.1697387695314	-288.6639099121094	1069.535522460938	-713.3152465820314	-67.5805130004883	1082.785034179688	-873.9216918945315	-48.6343231201172	1039.677612304688	-812.8011474609377	8.880166053771974	1057.674682617188	-915.4376220703127	-400.2329101562501	1053.756591796875	-949.1680908203127	-405.2282714843751	1021.658264160156	-975.137145996094	-403.1928710937501	1023.475524902344	-918.3609619140627	-292.8976135253907	743.0185546875001	-1141.78515625	-264.7805786132813	663.4005126953126	-1142.006591796875	-217.6736907958985	668.2334594726564	-1126.5390625	-292.3347167968751	611.5726318359376	-1130.33349609375	-305.0867309570313	501.3482055664064	-1121.564453125	-261.1421203613282	485.3421020507814	-998.972839355469	-250.0059814453126	378.2309265136719	-1093.02099609375	-311.4515991210938	340.2508850097657	-1141.376220703125	-270.3305053710938	333.1142272949219	-1123.3720703125	-273.8777465820313	252.1934661865235	-1095.92919921875	-351.0942382812501	113.2576980590821	-1112.6708984375	-321.4844360351563	124.4213485717774	-1033.051391601563	-406.9712524414064	81.05313110351564	-1072.35009765625	-200.1680450439454	52.15883255004884	-1041.517822265625	-195.6198730468751	53.56820297241212	-1089.7802734375	-233.7359008789063	39.2869987487793	-1143.343383789063	-305.4251708984376	798.7976074218752	-747.0690917968751	-268.5517883300782	744.9493408203126	-745.2326049804689	-237.2907257080079	749.6240844726564	-755.6777343750001	-298.3833618164063	664.1208496093751	-749.0665283203126	-318.7605285644532	510.2437133789064	-769.8816528320315	-272.0040893554688	491.8380432128907	-889.723815917969	-278.1369323730469	354.6820983886719	-819.2119140625002	-340.1004638671876	287.5144958496094	-759.6250000000001	-302.3070373535157	276.4013671875001	-787.8001708984377	-313.8790283203126	229.9497985839844	-821.5046386718752	-394.1564025878907	116.6811065673828	-780.370056152344	-359.4071350097657	135.0382232666016	-860.3829345703127	-446.2835693359376	94.1964797973633	-838.0464477539065	-241.6782531738282	57.74551010131837	-825.5433349609377	-247.1428527832032	57.31308364868165	-783.4926757812502	-289.2321777343751	37.10282135009766	-735.1743164062501	-236.2745971679688	999.5218505859377	-820.537048339844	-245.7526245117188	988.9539794921877	-1075.61474609375	
1171	5.850000000000001	-260.4496154785157	1727.079956054688	-929.054138183594	-389.8570251464845	1597.721435546875	-1007.556701660156	-360.2353820800782	1629.998779296875	-851.3272094726565	-416.2827758789064	1478.131103515625	-953.6614990234377	-410.5567321777345	1152.945190429688	-949.586120605469	-268.5048217773438	1425.194580078125	-947.5173950195315	-298.0768737792969	1458.610961914063	-1105.298461914063	-276.3111267089844	1257.397827148438	-1218.67529296875	-233.4000854492188	1245.328491210938	-1196.195434570313	-246.0938568115235	1195.088623046875	-1229.376098632813	-205.4248809814454	1120.567993164063	-1224.5224609375	-273.8788757324219	1093.137084960938	-1167.673583984375	-83.00314331054689	1063.40185546875	-1009.009033203125	-39.01096343994141	1027.6220703125	-1058.910400390625	-20.60573387145996	1059.754150390625	-956.488464355469	-314.3771057128907	1443.087524414063	-789.8449707031252	-301.2161560058594	1242.266845703125	-678.8869018554689	-257.0928344726563	1226.638793945313	-694.6400146484376	-276.6199951171876	1177.341674804688	-664.4259033203126	-241.9290008544922	1114.49951171875	-661.9907836914064	-289.8809204101563	1068.894287109375	-714.2972412109376	-68.66578674316408	1081.605346679688	-874.8591308593752	-49.95495223999025	1038.536376953125	-813.664489746094	7.364321231842043	1056.064453125	-916.7236938476565	-399.5741577148439	1053.788452148438	-950.1311035156252	-404.6773376464845	1021.569702148438	-976.0440673828127	-402.6081542968751	1023.450988769531	-919.336608886719	-292.4252014160157	742.9805908203126	-1142.40869140625	-263.1561584472657	663.1978759765626	-1142.172119140625	-216.7090148925782	668.1333618164064	-1126.885620117188	-291.3772888183594	611.4403076171876	-1130.90771484375	-304.0986633300782	501.2234802246095	-1122.06640625	-260.3346557617188	485.3226623535157	-999.4747314453127	-249.2616729736329	378.0211181640626	-1093.377319335938	-310.8648376464844	340.0482788085938	-1141.609741210938	-269.4529724121094	332.9248962402344	-1123.668090820313	-273.5014038085938	252.0196838378907	-1096.15234375	-350.9462585449219	113.1929931640625	-1112.750610351563	-321.4161987304688	124.4738311767578	-1033.096557617188	-406.9483947753907	81.05274200439455	-1072.37646484375	-200.1491241455079	52.16506195068361	-1041.469482421875	-195.6206359863282	53.52730941772462	-1089.77880859375	-233.7803497314454	39.28718185424805	-1143.349365234375	-305.4313659667969	798.8648071289065	-747.7196044921876	-268.5112915039063	745.0267944335939	-745.6444091796876	-237.1727600097657	749.6377563476564	-756.0437011718751	-298.3416748046876	664.1601562500001	-749.6232299804689	-318.6395568847657	510.3789978027345	-770.3374023437502	-271.4999084472657	491.7733764648439	-889.9664306640627	-278.0114440917969	354.7081604003907	-819.4349365234377	-340.0888061523438	287.6156616210938	-759.8696899414064	-302.2842102050782	276.1307983398438	-788.101013183594	-313.7628173828126	230.0065460205079	-821.695495605469	-394.0862731933595	116.7706527709961	-780.4807739257815	-359.3264160156251	135.0165405273438	-860.494079589844	-446.2852478027345	94.23135375976564	-838.096862792969	-241.5906677246094	57.74424362182619	-825.5161743164065	-247.0985565185547	57.33044815063478	-783.4929809570315	-289.2503967285157	37.09935760498048	-735.2260742187501	-235.9486083984376	999.5030517578127	-821.092468261719	-244.2321929931641	988.3751220703127	-1075.832275390625	
